<svg xmlns="http://www.w3.org/2000/svg" data-name="Layer 1" width="512" height="512"><circle cx="401.71" cy="368.747" r="7"/><circle cx="401.71" cy="344.747" r="7"/><circle cx="401.71" cy="394.747" r="7"/><circle cx="425.71" cy="368.747" r="7"/><circle cx="425.71" cy="344.747" r="7"/><circle cx="425.71" cy="394.747" r="7"/><circle cx="401.71" cy="314.747" r="7"/><path d="M489.768 46.253H22.232A17.251 17.251 0 0 0 5 63.485V348.5a17.251 17.251 0 0 0 17.232 17.232h165.992v35.8h-24.545a6 6 0 1 0 0 12h184.642a6 6 0 0 0 0-12h-24.545v-35.8h53.934v64.016a36 36 0 0 0 72 0v-64.017h40.058A17.251 17.251 0 0 0 507 348.5V63.485a17.251 17.251 0 0 0-17.232-17.232ZM311.776 401.53H200.224v-35.8h111.552Zm125.934 22.217h-7.085a6 6 0 0 0 0 12h6.325a24 24 0 0 1-46.48 0h20.043a6 6 0 0 0 0-12h-20.8v-124a4 4 0 0 1 4-4h40a4 4 0 0 1 4 4ZM495 348.5a5.238 5.238 0 0 1-5.232 5.232H449.71v-21.7h17.59a6 6 0 0 0 6-6V85.949a6 6 0 0 0-6-6H127.415a6 6 0 0 0 0 12H461.3v228.086h-11.59v-20.288a16.019 16.019 0 0 0-16-16h-40a16.019 16.019 0 0 0-16 16v20.288H50.7V91.949h36.715a6 6 0 0 0 0-12H44.7a6 6 0 0 0-6 6v240.086a6 6 0 0 0 6 6h333.01v21.7H22.232A5.238 5.238 0 0 1 17 348.5V63.485a5.238 5.238 0 0 1 5.232-5.232h467.536A5.238 5.238 0 0 1 495 63.485Z"/><path d="M304.335 240.844a6 6 0 0 0-8.409 1.135 50.874 50.874 0 0 1-5.26 5.882 6 6 0 0 0 8.3 8.672 62.7 62.7 0 0 0 6.508-7.28 6 6 0 0 0-1.139-8.409Z"/><path d="M256 273.769a62.166 62.166 0 0 0 17.913-2.623 6 6 0 1 0-3.453-11.492 50.1 50.1 0 1 1 34-35.05 6 6 0 0 0 11.592 3.1A62.168 62.168 0 1 0 256 273.769Z"/><path d="m284.2 206.808-32.092-24.069a6 6 0 0 0-9.6 4.8v48.138a6 6 0 0 0 9.6 4.8l32.092-24.069a6 6 0 0 0 0-9.6Zm-29.691 16.869v-24.138l16.091 12.069Z"/></svg>