<svg enable-background="new 0 0 256 256" height="512" viewBox="0 0 256 256" width="512" xmlns="http://www.w3.org/2000/svg"><g id="Layer_41"><g><g><path d="m128 41.809c-44.203 0-85.219-2.625-119.098-7.109-2.887-.382-5.443 1.864-5.443 4.777v151.435c0 2.912 2.556 5.159 5.443 4.777 33.879-4.483 74.895-7.109 119.098-7.109s85.219 2.625 119.098 7.109c2.887.382 5.443-1.864 5.443-4.777v-151.435c0-2.912-2.556-5.159-5.443-4.777-33.879 4.484-74.895 7.109-119.098 7.109z" fill="#edf4fc"/></g><g><g><path d="m165.617 226.4h-75.234c-3.262 0-5.908-2.645-5.908-5.908s2.645-5.908 5.908-5.908h75.235c3.262 0 5.908 2.645 5.908 5.908s-2.646 5.908-5.909 5.908z" fill="#edf4fc"/></g></g><g><path d="m128 188.58c-7.8 0-15.494.086-23.074.245v25.759h46.148v-25.759c-7.58-.159-15.274-.245-23.074-.245z" fill="#c7d7e5"/></g><g><path d="m14.1 46.089v138.211c34.104-4.167 73.312-6.362 113.9-6.362s79.796 2.195 113.9 6.362v-138.211c-34.104 4.167-73.312 6.362-113.9 6.362s-79.796-2.195-113.9-6.362z" fill="#5290db"/></g><g><path d="m92.822 109.5h-17.644c-3.673 0-6.678-3.005-6.678-6.678v-17.644c0-3.673 3.005-6.678 6.678-6.678h17.645c3.673 0 6.678 3.005 6.678 6.678v17.645c-.001 3.672-3.006 6.677-6.679 6.677z" fill="#fca265"/></g><g><path d="m136.822 109.5h-17.645c-3.673 0-6.678-3.005-6.678-6.678v-17.644c0-3.673 3.005-6.678 6.678-6.678h17.645c3.673 0 6.678 3.005 6.678 6.678v17.645c0 3.672-3.005 6.677-6.678 6.677z" fill="#fc657e"/></g><g><path d="m180.822 109.5h-17.645c-3.673 0-6.678-3.005-6.678-6.678v-17.644c0-3.673 3.005-6.678 6.678-6.678h17.645c3.673 0 6.678 3.005 6.678 6.678v17.645c0 3.672-3.005 6.677-6.678 6.677z" fill="#fcdd86"/></g><g><path d="m92.822 153.5h-17.644c-3.673 0-6.678-3.005-6.678-6.678v-17.645c0-3.673 3.005-6.678 6.678-6.678h17.645c3.673 0 6.678 3.005 6.678 6.678v17.645c-.001 3.673-3.006 6.678-6.679 6.678z" fill="#b598f9"/></g><g><path d="m136.822 153.5h-17.645c-3.673 0-6.678-3.005-6.678-6.678v-17.645c0-3.673 3.005-6.678 6.678-6.678h17.645c3.673 0 6.678 3.005 6.678 6.678v17.645c0 3.673-3.005 6.678-6.678 6.678z" fill="#70d6f9"/></g><g><path d="m180.822 153.5h-17.645c-3.673 0-6.678-3.005-6.678-6.678v-17.645c0-3.673 3.005-6.678 6.678-6.678h17.645c3.673 0 6.678 3.005 6.678 6.678v17.645c0 3.673-3.005 6.678-6.678 6.678z" fill="#b2e26d"/></g><g><g><g><path d="m58.876 219.21c-3.157-.561-5.613-3.017-6.245-6.104 0-.14-.281-.14-.281 0-.631 3.087-3.087 5.543-6.245 6.104-.14 0-.14.21 0 .281 3.157.561 5.613 3.017 6.245 6.104 0 .14.281.14.281 0 .631-3.087 3.087-5.543 6.245-6.104.14-.071.14-.281 0-.281z" fill="#fc657e"/></g></g></g><g><g><g><path d="m200.624 235.75c-4.5-.8-8-4.3-8.9-8.7 0-.2-.4-.2-.4 0-.9 4.4-4.4 7.9-8.9 8.7-.2 0-.2.3 0 .4 4.5.8 8 4.3 8.9 8.7 0 .2.4.2.4 0 .9-4.4 4.4-7.9 8.9-8.7.2-.1.2-.4 0-.4z" fill="#f5c84c"/></g></g></g><g><g><g><circle cx="153.6" cy="252.6" fill="#87d147" r="3.4"/></g></g></g><g><g><g><circle cx="134.624" cy="3.4" fill="#f5c84c" r="3.4"/></g></g></g><g><g><g><path d="m158.426 14.5h2.3v-2.3c0-1.7 1.4-3.2 3.2-3.2s3.2 1.4 3.2 3.2v2.3h2.3c1.7 0 3.2 1.4 3.2 3.2s-1.4 3.2-3.2 3.2h-2.3v2.3c0 1.7-1.4 3.2-3.2 3.2s-3.2-1.4-3.2-3.2v-2.3h-2.3c-1.7 0-3.2-1.4-3.2-3.2s1.4-3.2 3.2-3.2z" fill="#70d6f9"/></g></g></g><g><path d="m8.269 198.23c-1.761 0-3.476-.636-4.816-1.811-1.585-1.389-2.495-3.396-2.495-5.507v-151.435c0-2.11.909-4.118 2.495-5.507 1.583-1.387 3.69-2.025 5.776-1.748 35.039 4.636 76.109 7.087 118.771 7.087s83.732-2.451 118.771-7.087c2.088-.276 4.193.361 5.776 1.748 1.585 1.389 2.495 3.396 2.495 5.507v151.435c0 2.111-.909 4.118-2.495 5.507-1.583 1.387-3.689 2.026-5.776 1.748-35.039-4.636-76.108-7.087-118.771-7.087s-83.732 2.451-118.771 7.087c-.32.042-.641.063-.96.063zm-.01-161.072c-.556 0-1.083.198-1.511.572-.509.446-.79 1.067-.79 1.747v151.435c0 .68.281 1.301.79 1.747.507.445 1.159.642 1.825.551 35.252-4.665 76.549-7.13 119.427-7.13s84.174 2.465 119.427 7.13c.671.089 1.318-.107 1.825-.551.509-.446.79-1.067.79-1.747v-151.435c0-.68-.281-1.3-.79-1.747-.507-.444-1.154-.638-1.825-.551-35.252 4.665-76.549 7.13-119.427 7.13s-84.174-2.465-119.427-7.13c-.105-.014-.21-.021-.314-.021z"/></g><g><g><path d="m165.617 228.899h-75.234c-4.636 0-8.408-3.771-8.408-8.407s3.771-8.408 8.408-8.408h75.234c4.636 0 8.408 3.771 8.408 8.408 0 4.636-3.772 8.407-8.408 8.407zm-75.234-11.815c-1.879 0-3.408 1.529-3.408 3.408s1.529 3.407 3.408 3.407h75.234c1.879 0 3.408-1.528 3.408-3.407s-1.529-3.408-3.408-3.408z"/></g></g><g><path d="m151.074 215.958c-1.381 0-2.5-1.119-2.5-2.5v-23.739c0-1.381 1.119-2.5 2.5-2.5s2.5 1.119 2.5 2.5v23.739c0 1.381-1.119 2.5-2.5 2.5z"/></g><g><path d="m104.926 215.875c-1.381 0-2.5-1.119-2.5-2.5v-23.583c0-1.381 1.119-2.5 2.5-2.5s2.5 1.119 2.5 2.5v23.583c0 1.381-1.119 2.5-2.5 2.5z"/></g><g><path d="m241.9 186.8c-.101 0-.202-.006-.303-.019-33.962-4.15-73.244-6.344-113.597-6.344-40.354 0-79.635 2.194-113.597 6.344-.71.09-1.424-.135-1.96-.609-.536-.475-.843-1.156-.843-1.872v-138.211c0-.716.307-1.397.843-1.872.536-.474 1.248-.699 1.96-.609 33.964 4.15 73.245 6.343 113.597 6.343s79.633-2.193 113.597-6.343c.711-.083 1.424.135 1.96.609.536.475.843 1.156.843 1.872v138.211c0 .716-.307 1.397-.843 1.872-.46.407-1.05.628-1.657.628zm-113.9-11.362c39.448 0 77.891 2.088 111.4 6.044v-132.575c-33.51 3.956-71.953 6.043-111.4 6.043s-77.889-2.087-111.4-6.043v132.575c33.509-3.956 71.951-6.044 111.4-6.044z"/></g><g><path d="m92.822 112h-17.644c-5.061 0-9.178-4.117-9.178-9.178v-17.644c0-5.061 4.117-9.178 9.178-9.178h17.645c5.061 0 9.178 4.117 9.178 9.178v17.645c-.001 5.06-4.118 9.177-9.179 9.177zm-17.644-31c-2.304 0-4.178 1.874-4.178 4.178v17.645c0 2.304 1.874 4.178 4.178 4.178h17.645c2.304 0 4.178-1.874 4.178-4.178v-17.645c-.001-2.304-1.875-4.178-4.179-4.178z"/></g><g><path d="m136.822 112h-17.645c-5.061 0-9.178-4.117-9.178-9.178v-17.644c0-5.061 4.117-9.178 9.178-9.178h17.645c5.061 0 9.178 4.117 9.178 9.178v17.645c0 5.06-4.117 9.177-9.178 9.177zm-17.644-31c-2.304 0-4.178 1.874-4.178 4.178v17.645c0 2.304 1.874 4.178 4.178 4.178h17.645c2.304 0 4.178-1.874 4.178-4.178v-17.645c0-2.304-1.874-4.178-4.178-4.178z"/></g><g><path d="m180.822 112h-17.645c-5.061 0-9.178-4.117-9.178-9.178v-17.644c0-5.061 4.117-9.178 9.178-9.178h17.645c5.061 0 9.178 4.117 9.178 9.178v17.645c0 5.06-4.117 9.177-9.178 9.177zm-17.644-31c-2.304 0-4.178 1.874-4.178 4.178v17.645c0 2.304 1.874 4.178 4.178 4.178h17.645c2.304 0 4.178-1.874 4.178-4.178v-17.645c0-2.304-1.874-4.178-4.178-4.178z"/></g><g><path d="m92.822 156h-17.644c-5.061 0-9.178-4.117-9.178-9.178v-17.645c0-5.061 4.117-9.178 9.178-9.178h17.645c5.061 0 9.178 4.117 9.178 9.178v17.645c-.001 5.061-4.118 9.178-9.179 9.178zm-17.644-31c-2.304 0-4.178 1.874-4.178 4.178v17.645c0 2.304 1.874 4.178 4.178 4.178h17.645c2.304 0 4.178-1.874 4.178-4.178v-17.645c0-2.304-1.874-4.178-4.178-4.178z"/></g><g><path d="m136.822 156h-17.645c-5.061 0-9.178-4.117-9.178-9.178v-17.645c0-5.061 4.117-9.178 9.178-9.178h17.645c5.061 0 9.178 4.117 9.178 9.178v17.645c0 5.061-4.117 9.178-9.178 9.178zm-17.644-31c-2.304 0-4.178 1.874-4.178 4.178v17.645c0 2.304 1.874 4.178 4.178 4.178h17.645c2.304 0 4.178-1.874 4.178-4.178v-17.645c0-2.304-1.874-4.178-4.178-4.178z"/></g><g><path d="m180.822 156h-17.645c-5.061 0-9.178-4.117-9.178-9.178v-17.645c0-5.061 4.117-9.178 9.178-9.178h17.645c5.061 0 9.178 4.117 9.178 9.178v17.645c0 5.061-4.117 9.178-9.178 9.178zm-17.644-31c-2.304 0-4.178 1.874-4.178 4.178v17.645c0 2.304 1.874 4.178 4.178 4.178h17.645c2.304 0 4.178-1.874 4.178-4.178v-17.645c0-2.304-1.874-4.178-4.178-4.178z"/></g></g></g></svg>